<svg width="207" height="42" viewBox="0 0 207 42" fill="none" xmlns="http://www.w3.org/2000/svg">
<path opacity="0.5" d="M40.0652 2.25671L30.2601 36.9917C30.2102 37.1494 30.0108 37.1967 29.8945 37.0863L23.3301 30.8583L28.2492 13.4514C28.2991 13.2937 28.1495 13.1518 27.9833 13.1991L9.63617 17.8662L3.10498 11.6697C2.98865 11.5593 3.03851 11.3701 3.20469 11.3228L39.7993 2.00444C39.9655 1.97291 40.115 2.11481 40.0652 2.25671Z" fill="#00B37E"/>
<path opacity="0.5" d="M23.3297 30.858L20.8037 39.8452C20.7538 40.0029 20.5544 40.0502 20.4381 39.9398L0.0634003 20.6251C-0.0529313 20.5147 -0.00307518 20.3255 0.163113 20.2782L9.63583 17.8658L23.3297 30.858Z" fill="#00B37E"/>
<path d="M28.2484 13.4511L23.3292 30.858L9.63533 17.8659L27.9825 13.1988C28.1487 13.1515 28.2982 13.2934 28.2484 13.4511Z" fill="#00B37E"/>
<path d="M61.675 11.3104V29.5H57.9397V11.3104H61.675ZM73.5182 15.9828H76.7789V29.0503C76.7789 30.2829 76.504 31.3281 75.9543 32.186C75.413 33.0521 74.6551 33.7059 73.6806 34.1473C72.7062 34.5971 71.5735 34.8219 70.2826 34.8219C69.7163 34.8219 69.1166 34.747 68.4836 34.5971C67.859 34.4472 67.2593 34.214 66.6847 33.8975C66.1183 33.581 65.6436 33.1812 65.2605 32.6982L66.8471 30.5744C67.2635 31.0574 67.7466 31.4322 68.2962 31.6987C68.8459 31.9736 69.4539 32.111 70.1202 32.111C70.7698 32.111 71.3195 31.9902 71.7692 31.7487C72.219 31.5155 72.5646 31.1699 72.8061 30.7118C73.0477 30.2621 73.1684 29.7165 73.1684 29.0752V19.106L73.5182 15.9828ZM64.4235 22.9038V22.6414C64.4235 21.6087 64.5484 20.6717 64.7982 19.8305C65.0564 18.981 65.4187 18.2523 65.8851 17.6443C66.3598 17.0363 66.9345 16.5658 67.6091 16.2326C68.2837 15.8995 69.0458 15.7329 69.8953 15.7329C70.7948 15.7329 71.5485 15.8995 72.1565 16.2326C72.7645 16.5658 73.2642 17.0405 73.6557 17.6568C74.0471 18.2648 74.3511 18.9852 74.5676 19.8181C74.7925 20.6426 74.9674 21.5462 75.0923 22.529V23.1037C74.9674 24.0448 74.78 24.9193 74.5302 25.7272C74.2803 26.535 73.9513 27.243 73.5432 27.8509C73.1351 28.4506 72.6271 28.917 72.0191 29.2501C71.4194 29.5833 70.7032 29.7499 69.8703 29.7499C69.0375 29.7499 68.2837 29.5791 67.6091 29.2377C66.9428 28.8962 66.3723 28.4173 65.8976 27.801C65.4229 27.1847 65.0564 26.4601 64.7982 25.6272C64.5484 24.7944 64.4235 23.8866 64.4235 22.9038ZM68.0214 22.6414V22.9038C68.0214 23.4618 68.0755 23.9823 68.1838 24.4654C68.2921 24.9484 68.4586 25.3774 68.6835 25.7521C68.9167 26.1186 69.204 26.4059 69.5455 26.6142C69.8953 26.814 70.3076 26.914 70.7823 26.914C71.4403 26.914 71.9775 26.7766 72.3939 26.5017C72.8103 26.2185 73.1226 25.8313 73.3308 25.3399C73.5391 24.8485 73.6598 24.2822 73.6931 23.6409V22.0043C73.6765 21.4796 73.6057 21.009 73.4808 20.5926C73.3558 20.1679 73.1809 19.8056 72.9561 19.5057C72.7312 19.2059 72.4397 18.9727 72.0816 18.8061C71.7234 18.6396 71.2987 18.5563 70.8073 18.5563C70.3326 18.5563 69.9203 18.6645 69.5705 18.8811C69.229 19.0893 68.9417 19.3766 68.7085 19.7431C68.4836 20.1096 68.3129 20.5426 68.1963 21.0424C68.0797 21.5337 68.0214 22.0668 68.0214 22.6414ZM83.1002 18.8686V29.5H79.5023V15.9828H82.8754L83.1002 18.8686ZM82.5755 22.2666H81.6011C81.6011 21.2672 81.7302 20.3677 81.9884 19.5682C82.2466 18.7603 82.6089 18.0732 83.0753 17.5069C83.5417 16.9322 84.0955 16.495 84.7368 16.1951C85.3864 15.887 86.111 15.7329 86.9106 15.7329C87.5435 15.7329 88.1224 15.8245 88.6471 16.0077C89.1718 16.191 89.6215 16.4825 89.9963 16.8822C90.3794 17.282 90.6709 17.8109 90.8708 18.4688C91.079 19.1268 91.1831 19.9305 91.1831 20.8799V29.5H87.5602V20.8675C87.5602 20.2678 87.4769 19.8014 87.3103 19.4683C87.1438 19.1351 86.8981 18.9019 86.5733 18.7687C86.2568 18.6271 85.8653 18.5563 85.3989 18.5563C84.9159 18.5563 84.4953 18.6521 84.1371 18.8436C83.7873 19.0352 83.4958 19.3017 83.2626 19.6432C83.0378 19.9763 82.867 20.3677 82.7504 20.8175C82.6338 21.2672 82.5755 21.7503 82.5755 22.2666ZM97.7169 15.9828V29.5H94.1064V15.9828H97.7169ZM93.8816 12.4598C93.8816 11.9351 94.0648 11.502 94.4312 11.1605C94.7977 10.819 95.2891 10.6483 95.9054 10.6483C96.5134 10.6483 97.0006 10.819 97.3671 11.1605C97.7418 11.502 97.9292 11.9351 97.9292 12.4598C97.9292 12.9845 97.7418 13.4176 97.3671 13.759C97.0006 14.1005 96.5134 14.2712 95.9054 14.2712C95.2891 14.2712 94.7977 14.1005 94.4312 13.759C94.0648 13.4176 93.8816 12.9845 93.8816 12.4598ZM107.311 15.9828V18.5313H99.4409V15.9828H107.311ZM101.39 12.6472H104.988V25.4273C104.988 25.8188 105.038 26.1186 105.138 26.3268C105.246 26.535 105.404 26.6808 105.612 26.7641C105.821 26.839 106.083 26.8765 106.399 26.8765C106.624 26.8765 106.824 26.8682 106.999 26.8515C107.182 26.8265 107.336 26.8015 107.461 26.7766L107.474 29.425C107.166 29.525 106.832 29.6041 106.474 29.6624C106.116 29.7207 105.721 29.7499 105.288 29.7499C104.496 29.7499 103.805 29.6208 103.214 29.3626C102.631 29.0961 102.181 28.6713 101.864 28.0883C101.548 27.5053 101.39 26.7391 101.39 25.7896V12.6472ZM115.582 29.7499C114.532 29.7499 113.591 29.5833 112.758 29.2501C111.925 28.9087 111.217 28.4381 110.634 27.8385C110.06 27.2388 109.618 26.5434 109.31 25.7521C109.002 24.9526 108.848 24.1031 108.848 23.2036V22.7039C108.848 21.6795 108.994 20.7425 109.285 19.893C109.577 19.0435 109.993 18.3064 110.535 17.6818C111.084 17.0571 111.75 16.5782 112.533 16.2451C113.316 15.9036 114.199 15.7329 115.182 15.7329C116.14 15.7329 116.989 15.8911 117.73 16.2076C118.472 16.5241 119.092 16.9739 119.592 17.5569C120.1 18.1398 120.483 18.8394 120.741 19.6556C120.999 20.4635 121.128 21.363 121.128 22.3541V23.8532H110.385V21.4546H117.593V21.1798C117.593 20.6801 117.501 20.2345 117.318 19.843C117.143 19.4433 116.877 19.1268 116.519 18.8936C116.16 18.6604 115.702 18.5438 115.144 18.5438C114.67 18.5438 114.262 18.6479 113.92 18.8561C113.579 19.0643 113.3 19.3558 113.083 19.7306C112.875 20.1054 112.717 20.5468 112.608 21.0548C112.508 21.5546 112.458 22.1042 112.458 22.7039V23.2036C112.458 23.745 112.533 24.2447 112.683 24.7028C112.842 25.1608 113.062 25.5564 113.345 25.8896C113.637 26.2227 113.987 26.4809 114.395 26.6641C114.811 26.8474 115.282 26.939 115.806 26.939C116.456 26.939 117.06 26.814 117.618 26.5642C118.184 26.306 118.672 25.9187 119.08 25.4024L120.829 27.3013C120.545 27.7094 120.158 28.1008 119.667 28.4756C119.184 28.8504 118.601 29.1585 117.918 29.4001C117.235 29.6333 116.456 29.7499 115.582 29.7499ZM131.485 11.3104H134.658L139.33 24.6653L144.003 11.3104H147.176L140.605 29.5H138.056L131.485 11.3104ZM129.773 11.3104H132.934L133.509 24.328V29.5H129.773V11.3104ZM145.727 11.3104H148.9V29.5H145.152V24.328L145.727 11.3104ZM151.386 22.8788V22.6164C151.386 21.6253 151.528 20.7134 151.811 19.8805C152.094 19.0393 152.506 18.3106 153.048 17.6943C153.589 17.078 154.255 16.5991 155.046 16.2576C155.838 15.9078 156.746 15.7329 157.77 15.7329C158.794 15.7329 159.706 15.9078 160.506 16.2576C161.305 16.5991 161.976 17.078 162.517 17.6943C163.067 18.3106 163.483 19.0393 163.766 19.8805C164.05 20.7134 164.191 21.6253 164.191 22.6164V22.8788C164.191 23.8616 164.05 24.7735 163.766 25.6147C163.483 26.4476 163.067 27.1763 162.517 27.801C161.976 28.4173 161.31 28.8962 160.518 29.2377C159.727 29.5791 158.819 29.7499 157.795 29.7499C156.77 29.7499 155.859 29.5791 155.059 29.2377C154.268 28.8962 153.597 28.4173 153.048 27.801C152.506 27.1763 152.094 26.4476 151.811 25.6147C151.528 24.7735 151.386 23.8616 151.386 22.8788ZM154.984 22.6164V22.8788C154.984 23.4451 155.034 23.974 155.134 24.4654C155.234 24.9568 155.392 25.3899 155.609 25.7646C155.834 26.1311 156.125 26.4184 156.483 26.6266C156.841 26.8349 157.279 26.939 157.795 26.939C158.295 26.939 158.724 26.8349 159.082 26.6266C159.44 26.4184 159.727 26.1311 159.944 25.7646C160.16 25.3899 160.318 24.9568 160.418 24.4654C160.527 23.974 160.581 23.4451 160.581 22.8788V22.6164C160.581 22.0668 160.527 21.5504 160.418 21.0673C160.318 20.576 160.156 20.1429 159.931 19.7681C159.715 19.385 159.427 19.0851 159.069 18.8686C158.711 18.6521 158.278 18.5438 157.77 18.5438C157.262 18.5438 156.829 18.6521 156.471 18.8686C156.121 19.0851 155.834 19.385 155.609 19.7681C155.392 20.1429 155.234 20.576 155.134 21.0673C155.034 21.5504 154.984 22.0668 154.984 22.6164ZM169.925 18.8686V29.5H166.328V15.9828H169.701L169.925 18.8686ZM169.401 22.2666H168.426C168.426 21.2672 168.555 20.3677 168.814 19.5682C169.072 18.7603 169.434 18.0732 169.9 17.5069C170.367 16.9322 170.921 16.495 171.562 16.1951C172.212 15.887 172.936 15.7329 173.736 15.7329C174.369 15.7329 174.948 15.8245 175.472 16.0077C175.997 16.191 176.447 16.4825 176.821 16.8822C177.205 17.282 177.496 17.8109 177.696 18.4688C177.904 19.1268 178.008 19.9305 178.008 20.8799V29.5H174.385V20.8675C174.385 20.2678 174.302 19.8014 174.136 19.4683C173.969 19.1351 173.723 18.9019 173.398 18.7687C173.082 18.6271 172.691 18.5563 172.224 18.5563C171.741 18.5563 171.32 18.6521 170.962 18.8436C170.613 19.0352 170.321 19.3017 170.088 19.6432C169.863 19.9763 169.692 20.3677 169.576 20.8175C169.459 21.2672 169.401 21.7503 169.401 22.2666ZM186.966 29.7499C185.916 29.7499 184.975 29.5833 184.142 29.2501C183.309 28.9087 182.602 28.4381 182.019 27.8385C181.444 27.2388 181.002 26.5434 180.694 25.7521C180.386 24.9526 180.232 24.1031 180.232 23.2036V22.7039C180.232 21.6795 180.378 20.7425 180.669 19.893C180.961 19.0435 181.377 18.3064 181.919 17.6818C182.468 17.0571 183.135 16.5782 183.917 16.2451C184.7 15.9036 185.583 15.7329 186.566 15.7329C187.524 15.7329 188.373 15.8911 189.114 16.2076C189.856 16.5241 190.476 16.9739 190.976 17.5569C191.484 18.1398 191.867 18.8394 192.125 19.6556C192.383 20.4635 192.512 21.363 192.512 22.3541V23.8532H181.769V21.4546H188.977V21.1798C188.977 20.6801 188.885 20.2345 188.702 19.843C188.527 19.4433 188.261 19.1268 187.903 18.8936C187.545 18.6604 187.086 18.5438 186.528 18.5438C186.054 18.5438 185.646 18.6479 185.304 18.8561C184.963 19.0643 184.684 19.3558 184.467 19.7306C184.259 20.1054 184.101 20.5468 183.992 21.0548C183.892 21.5546 183.842 22.1042 183.842 22.7039V23.2036C183.842 23.745 183.917 24.2447 184.067 24.7028C184.226 25.1608 184.446 25.5564 184.729 25.8896C185.021 26.2227 185.371 26.4809 185.779 26.6641C186.195 26.8474 186.666 26.939 187.191 26.939C187.84 26.939 188.444 26.814 189.002 26.5642C189.568 26.306 190.056 25.9187 190.464 25.4024L192.213 27.3013C191.929 27.7094 191.542 28.1008 191.051 28.4756C190.568 28.8504 189.985 29.1585 189.302 29.4001C188.619 29.6333 187.84 29.7499 186.966 29.7499ZM198.397 27.9759L201.982 15.9828H205.842L200.408 31.5363C200.291 31.8778 200.133 32.2443 199.933 32.6357C199.742 33.0271 199.479 33.3978 199.146 33.7476C198.821 34.1057 198.409 34.3972 197.909 34.6221C197.418 34.8469 196.814 34.9594 196.098 34.9594C195.756 34.9594 195.477 34.9385 195.261 34.8969C195.044 34.8553 194.786 34.797 194.486 34.722V32.086C194.578 32.086 194.674 32.086 194.774 32.086C194.874 32.0943 194.969 32.0985 195.061 32.0985C195.536 32.0985 195.923 32.0444 196.223 31.9361C196.523 31.8278 196.764 31.6613 196.947 31.4364C197.131 31.2198 197.276 30.9367 197.385 30.5869L198.397 27.9759ZM196.897 15.9828L199.833 25.7771L200.345 29.5874L197.897 29.8498L193.037 15.9828H196.897Z" fill="#E1E1E6"/>
</svg>
